HIERARCHY
ROOT hip
{
	OFFSET 0.000000 0.000000 0.000000 
	CHANNELS 6 Xposition Yposition Zposition Zrotation Xrotation Yrotation
	JOINT abdomen
	{
		OFFSET 0.000000 3.402643 0.000000 
		CHANNELS 3 Zrotation Xrotation Yrotation
		JOINT chest
		{
			OFFSET 0.000000 8.438565 -0.680529 
			CHANNELS 3 Zrotation Xrotation Yrotation
			JOINT neck
			{
				OFFSET 0.000000 10.207942 -0.272212 
				CHANNELS 3 Zrotation Xrotation Yrotation
				JOINT head
				{
					OFFSET 0.000000 3.130431 0.000000 
					CHANNELS 3 Zrotation Xrotation Yrotation
					End Site
					{
						OFFSET 0.000000 3.130435 0.000000 
					}
				}
			}
			JOINT lCollar
			{
				OFFSET 3.470700 6.669187 -0.816635 
				CHANNELS 3 Zrotation Yrotation Xrotation
				JOINT lShldr
				{
					OFFSET 3.198488 0.000000 0.000000 
					CHANNELS 3 Zrotation Yrotation Xrotation
					JOINT lForeArm
					{
						OFFSET 10.139888 0.000000 0.000000 
						CHANNELS 3 Zrotation Yrotation Xrotation
						JOINT lHand
						{
							OFFSET 8.370511 0.000000 0.000000 
							CHANNELS 3 Zrotation Yrotation Xrotation
							JOINT lFingers
							{
								OFFSET 4.083176 0.000000 0.000000 
								CHANNELS 3 Zrotation Xrotation Yrotation
								End Site
								{
									OFFSET 0.000000 0.000000 0.000000 
								}
							}
						}
					}
				}
			}
			JOINT rCollar
			{
				OFFSET -3.470700 6.669187 -0.816635 
				CHANNELS 3 Zrotation Yrotation Xrotation
				JOINT rShldr
				{
					OFFSET -3.198488 0.000000 0.000000 
					CHANNELS 3 Zrotation Yrotation Xrotation
					JOINT rForeArm
					{
						OFFSET -10.139888 0.000000 0.000000 
						CHANNELS 3 Zrotation Yrotation Xrotation
						JOINT rHand
						{
							OFFSET -8.370511 0.000000 0.000000 
							CHANNELS 3 Zrotation Yrotation Xrotation
							JOINT rFingers
							{
								OFFSET -4.083176 0.000000 0.000000 
								CHANNELS 3 Zrotation Xrotation Yrotation
								End Site
								{
									OFFSET 0.000000 0.000000 0.000000 
								}
							}
						}
					}
				}
			}
		}
	}
	JOINT lThigh
	{
		OFFSET 5.308129 -1.633274 1.361059 
		CHANNELS 3 Zrotation Xrotation Yrotation
		JOINT lShin
		{
			OFFSET -2.041588 -20.007561 0.000000 
			CHANNELS 3 Zrotation Xrotation Yrotation
			JOINT lFoot
			{
				OFFSET 0.000000 -19.190928 -1.224953 
				CHANNELS 3 Zrotation Xrotation Yrotation
				JOINT lToes
				{
					OFFSET 0.000000 -2.449906 4.627600 
					CHANNELS 3 Zrotation Xrotation Yrotation
					End Site
					{
						OFFSET 0.000000 0.000000 0.000000 
					}
				}
			}
		}
	}
	JOINT rThigh
	{
		OFFSET -5.308129 -1.633274 1.361059 
		CHANNELS 3 Zrotation Xrotation Yrotation
		JOINT rShin
		{
			OFFSET 2.041588 -20.007561 0.000000 
			CHANNELS 3 Zrotation Xrotation Yrotation
			JOINT rFoot
			{
				OFFSET 0.000000 -19.190928 -1.224953 
				CHANNELS 3 Zrotation Xrotation Yrotation
				JOINT rToes
				{
					OFFSET 0.000000 -2.449906 4.627600 
					CHANNELS 3 Zrotation Xrotation Yrotation
					End Site
					{
						OFFSET 0.000000 0.000000 0.000000 
					}
				}
			}
		}
	}
}
MOTION
Frames: 5
Frame Time: 0.016667
5.471357 49.911228 0.583570 9.270000 8.032540 -93.176903 0.277674 -6.347080 1.868710 3.880620 3.272440 4.264060 0.000000 0.000000 0.000000 1.101700 6.597550 9.244900 -19.100000 0.000000 0.000000 -75.779396 -22.147600 -130.522003 0.000000 41.349098 -0.000000 -0.000007 0.000004 144.251999 -7.125020 0.000000 0.000000 19.100000 0.000000 0.000000 64.155067 29.114401 -142.438004 0.000000 -36.462700 0.000000 0.000007 -0.000004 147.445999 7.122600 0.186031 -0.011578 17.729900 -35.342400 2.005150 0.000000 40.229301 0.000000 -1.039390 -11.019800 -5.421970 0.000000 -8.832130 0.000000 -6.360910 -31.787800 -2.338790 0.000000 46.271599 0.000000 -1.403880 -21.614000 -3.806410 0.000000 -8.927960 0.000000 
5.442075 49.927361 0.670391 9.314860 7.876710 -93.759102 0.266210 -6.286980 1.656220 3.801920 3.354670 3.826080 0.000000 0.000000 0.000000 1.114810 6.446460 9.512560 -19.100000 0.000000 0.000000 -75.720795 -23.062700 -128.255997 0.000000 40.555901 -0.000000 -0.000007 0.000004 149.080002 -7.125020 0.000000 0.000000 19.100000 0.000000 0.000000 62.661850 27.283600 -145.817001 0.000000 -39.259602 0.000000 0.000007 0.000014 143.307007 7.122600 0.186031 -0.011578 17.718300 -35.144798 2.263670 0.000000 40.249802 0.000000 -0.990153 -11.083500 -5.137330 0.000000 -8.990690 0.000000 -6.292890 -31.852600 -1.783980 0.000000 46.113998 0.000000 -1.389610 -21.513201 -3.784570 0.000000 -9.021480 0.000000 
5.406823 49.945915 0.780066 9.356460 7.713670 -94.434402 0.178389 -6.236870 1.487100 3.689910 3.423920 3.479860 0.000000 0.000000 0.000000 1.134880 6.324590 9.749550 -19.100000 0.000000 0.000000 -75.718796 -24.195301 -125.964996 0.000000 39.810101 -0.000000 -0.000008 0.000005 154.990997 -7.125020 0.000000 0.000000 19.100000 0.000000 0.000000 61.520363 25.408300 -149.391998 0.000000 -42.436001 0.000000 0.000007 0.000014 139.190002 7.122600 0.186031 -0.011578 17.722300 -34.916500 2.604000 0.000000 40.289299 0.000000 -0.935704 -11.165100 -4.821260 0.000000 -9.227370 0.000000 -6.243020 -31.903299 -1.235690 0.000000 45.904202 0.000000 -1.338850 -21.385201 -3.667390 0.000000 -9.218520 0.000000 
5.364407 49.966484 0.908714 9.402950 7.552730 -95.173401 0.026453 -6.170270 1.357590 3.548940 3.488590 3.215190 0.000000 0.000000 0.000000 1.166070 6.206140 9.957040 -19.100000 0.000000 0.000000 -75.759094 -25.491400 -123.675003 0.000000 39.097698 -0.000000 -0.000008 0.000006 162.069000 -7.125020 0.000000 0.000000 19.100000 0.000000 0.000000 60.739960 23.552601 -153.007004 0.000000 -45.884998 0.000000 0.000007 0.000015 135.806000 7.122600 0.186031 -0.011578 17.715300 -34.671600 2.930940 0.000000 40.335701 0.000000 -0.865824 -11.254500 -4.427830 0.000000 -9.506240 0.000000 -6.220660 -31.952600 -0.725668 0.000000 45.654598 0.000000 -1.241400 -21.243000 -3.422670 0.000000 -9.345690 0.000000 
5.314810 49.991894 1.038977 9.442270 7.373210 -96.065697 -0.095060 -6.118310 1.286960 3.403340 3.545840 3.068450 0.000000 0.000000 0.000000 1.210540 6.090100 10.143200 -19.100000 0.000000 0.000000 -75.873299 -26.900700 -121.458000 0.000000 38.365200 -0.000000 -0.000009 0.000007 170.063004 -7.125020 0.000000 0.000000 19.100000 0.000000 0.000000 60.241444 21.710100 -156.442993 0.000000 -49.541100 0.000000 0.000006 0.000015 133.742004 7.122600 0.186031 -0.011578 17.756701 -34.347000 3.363590 0.000000 40.381199 0.000000 -0.783607 -11.372600 -3.967800 0.000000 -9.800430 0.000000 -6.159750 -32.012199 -0.115717 0.000000 45.384499 0.000000 -1.104060 -21.093399 -3.065240 0.000000 -9.266340 0.000000 
